<?xml version="1.0" standalone="no"?><!DOCTYPE svg PUBLIC "-//W3C//DTD SVG 1.1//EN" "http://www.w3.org/Graphics/SVG/1.1/DTD/svg11.dtd"><svg class="icon" width="200px" height="192.12px" viewBox="0 0 1066 1024" version="1.1" xmlns="http://www.w3.org/2000/svg"><path d="M537.52684626 454.00770171L390.91272766 307.33073901c-17.78473933-17.72189523-40.03137377-13.32284274-53.35421649 0-17.78473933 17.78473933-13.32284274 40.03137377 0 53.35421651l142.2150661 142.21506756-146.67696269 146.61411859c-17.78473933 17.78473933-13.32284274 40.03137377 0 53.35421653 17.78473933 17.72189523 40.03137377 13.32284274 53.3542165 0l142.21506757-142.21506758 142.15222348 142.21506758c17.78473933 17.72189523 40.03137377 13.32284274 53.3542165 0 17.78473933-17.78473933 13.32284274-40.03137377 0-53.35421653l-142.21506758-142.21506755 142.21506758-142.1522235c17.78473933-17.78473933 13.32284274-40.03137377 0-53.35421649-17.78473933-17.78473933-40.03137377-13.32284274-53.3542165 0l-137.75317097 137.75317245z m333.25961097 386.61382746c-191.04454486 191.04454486-497.72131299 186.64549237-684.36680536 0s-186.58264828-497.72131299 0-684.36680536 497.72131299-186.64549237 684.36680536 0 191.04454486 493.3222605 0 684.36680536z" fill="#bfbfbf" /></svg>