<?xml version="1.0" standalone="no"?><!DOCTYPE svg PUBLIC "-//W3C//DTD SVG 1.1//EN" "http://www.w3.org/Graphics/SVG/1.1/DTD/svg11.dtd"><svg t="1514303041793" class="icon" style="" viewBox="0 0 1024 1024" version="1.1" xmlns="http://www.w3.org/2000/svg" p-id="12023" xmlns:xlink="http://www.w3.org/1999/xlink" width="32" height="32"><defs><style type="text/css"></style></defs><path d="M509.263333 14.473928C333.265233 14.473928 179.16047 154.591282 179.16047 325.845825c0 160.307875 325.359306 541.738449 325.359307 541.738449s337.88716-376.808647 337.88716-541.738449c0-171.254543-157.267134-311.371897-333.143604-311.371897z m4.621927 429.717544M619.703053 876.949757c1.581185 3.162371 1.581185 6.203112 1.581185 9.365482 0 29.556004-49.868155 52.908897-110.561349 52.908897-60.693194 0-110.561349-23.352892-110.56135-52.908897 0-3.162371 0-6.203112 1.581186-9.365482-66.896306 12.406224-112.142535 35.759116-112.142535 62.274379 0 38.921487 99.614681 71.639862 221.122699 71.639862 122.967573 0 221.122699-31.13719 221.122698-71.639862 0-26.515263-45.124599-49.868155-112.142534-62.274379z m0 0" fill="#006F68" p-id="12024"></path><path d="M387.755315 341.657679c31.866968-34.056301 39.894524-62.396009 53.030527-108.493645l0.243259-0.729778c12.284594-30.650671 39.529635-67.017936 100.344459-67.017936 4.986816 0 10.095261 0.243259 15.325335 0.729778-2.554223 51.81423-8.878964 100.1012-53.030526 160.916023-5.230075 0.243259-10.21689 0.486519-15.082076 0.729778-41.23245 1.824445-68.96401 3.040741-100.830978 13.86578M640.866611 458.178881c-43.665043-28.096449-82.221642-57.774082-112.872312-126.494833 2.432593-4.621927 4.743556-9.122224 6.93289-13.379261 18.974225-36.732153 31.866968-61.301342 38.434968-94.262977 13.500891 44.638081 34.056301 65.801639 67.382825 100.22283l0.608148 0.608148c22.623114 28.826226 40.624302 75.167122-0.486519 133.306093M442.731916 453.313695c-20.190521 0-38.313339-5.108445-53.881934-15.325335-17.636299-11.433187-32.110227-29.312745-43.056895-53.030527 45.002969-23.109633 81.491864-36.367265 131.968167-36.367264 10.703409 0 22.136596 0.608148 33.934672 1.824445 2.797482 4.378667 5.473334 8.635705 8.149186 12.649483 22.258225 34.786079 37.218672 58.260601 62.396009 80.397197-15.082076-3.52726-28.582967-5.230075-42.083858-5.230075-24.812448 0-47.313933 5.594964-78.451122 13.500891l-0.729778 0.243259c-6.203112 0.851408-12.284594 1.337926-18.244447 1.337926" fill="#FFFFFF" p-id="12025"></path></svg>