<?xml version="1.0" standalone="no"?><!DOCTYPE svg PUBLIC "-//W3C//DTD SVG 1.1//EN" "http://www.w3.org/Graphics/SVG/1.1/DTD/svg11.dtd"><svg t="1514303163805" class="icon" style="" viewBox="0 0 1024 1024" version="1.1" xmlns="http://www.w3.org/2000/svg" p-id="12201" xmlns:xlink="http://www.w3.org/1999/xlink" width="32" height="32"><defs><style type="text/css"></style></defs><path d="M511.8 881.9c0.8 1.3 1.5 2.2 2 2.7 0.5-0.5 1.2-1.4 2-2.7l105.8-183.2-136.7 136.6 26.9 46.6zM364.5 626.7l60.6 105 65.1-65.1c-44.9-3.4-87.7-17.1-125.7-39.9zM532.5 666.7l-91.9 91.9 28.8 49.9L640.9 637c-33.6 16.9-70.3 27-108.4 29.7zM255.1 380.5c0 68.6 26.7 133.1 75.2 181.6s113 75.2 181.6 75.2 133.1-26.7 181.6-75.2 75.2-113 75.2-181.6-26.7-133.1-75.2-181.6-113-75.2-181.6-75.2-133.1 26.7-181.6 75.2c-48.4 48.5-75.2 113-75.2 181.6zM378.5 249c23.5 0 42.5 19 42.5 42.5S402 334 378.5 334 336 315 336 291.5s19-42.5 42.5-42.5z" fill="#FFBC00" p-id="12202"></path><path d="M798.9 380.5c0-76.6-29.8-148.7-84-202.8s-126.2-84-202.8-84c-76.6 0-148.7 29.8-202.8 84-54.2 54.2-84 126.2-84 202.8 0 71.2 25.8 138.4 72.9 191.1L486 896.9c6.7 11.6 16.9 18.2 28 18.2s21.3-6.6 28-18.2l195.8-339.1c39.5-50.4 61.1-112.2 61.1-177.3zM693.6 198.9c48.5 48.5 75.2 113 75.2 181.6s-26.7 133.1-75.2 181.6-113 75.2-181.6 75.2-133.1-26.7-181.6-75.2-75.2-113-75.2-181.6 26.7-133.1 75.2-181.6 113-75.2 181.6-75.2 133.1 26.7 181.6 75.2zM364.5 626.7c38 22.9 80.8 36.5 125.7 39.9l-65.1 65.1-60.6-105z m76.1 131.8l91.9-91.9c38.2-2.7 74.9-12.8 108.4-29.7L469.4 808.4l-28.8-49.9z m75.2 123.4c-0.8 1.3-1.5 2.2-2 2.7-0.5-0.5-1.2-1.4-2-2.7l-26.9-46.5 136.7-136.7-105.8 183.2z" fill="#46287C" p-id="12203"></path><path d="M378.5 291.5m-42.5 0a42.5 42.5 0 1 0 85 0 42.5 42.5 0 1 0-85 0Z" fill="#FFFFFF" p-id="12204"></path></svg>